<?xml version="1.0" encoding="UTF-8" standalone="no"?>
<!-- Created with Inkscape (http://www.inkscape.org/) -->

<svg
   width="400"
   height="400"
   viewBox="0 0 105.83333 105.83333"
   version="1.1"
   id="svg5"
   inkscape:version="1.2.2 (732a01da63, 2022-12-09)"
   xml:space="preserve"
   sodipodi:docname="fave.svg"
   xmlns:inkscape="http://www.inkscape.org/namespaces/inkscape"
   xmlns:sodipodi="http://sodipodi.sourceforge.net/DTD/sodipodi-0.dtd"
   xmlns:xlink="http://www.w3.org/1999/xlink"
   xmlns="http://www.w3.org/2000/svg"
   xmlns:svg="http://www.w3.org/2000/svg"><sodipodi:namedview
     id="namedview7"
     pagecolor="#000000"
     bordercolor="#111111"
     borderopacity="1"
     inkscape:showpageshadow="0"
     inkscape:pageopacity="0"
     inkscape:pagecheckerboard="1"
     inkscape:deskcolor="#d1d1d1"
     inkscape:document-units="mm"
     showgrid="false"
     inkscape:zoom="1.2739583"
     inkscape:cx="330.0736"
     inkscape:cy="177.39984"
     inkscape:window-width="1920"
     inkscape:window-height="1009"
     inkscape:window-x="-8"
     inkscape:window-y="-8"
     inkscape:window-maximized="1"
     inkscape:current-layer="layer1" /><defs
     id="defs2"><linearGradient
       inkscape:collect="always"
       id="linearGradient814"><stop
         style="stop-color:#000000;stop-opacity:1;"
         offset="0"
         id="stop810" /><stop
         style="stop-color:#000000;stop-opacity:1;"
         offset="1"
         id="stop812" /></linearGradient><linearGradient
       inkscape:collect="always"
       xlink:href="#linearGradient814"
       id="linearGradient816"
       x1="48.59853"
       y1="105.83334"
       x2="47.265873"
       y2="0"
       gradientUnits="userSpaceOnUse" /></defs><g
     inkscape:label="Layer 1"
     inkscape:groupmode="layer"
     id="layer1"><rect
       style="fill:url(#linearGradient816);stroke-width:8;stroke-linecap:round;stroke-miterlimit:4.5;paint-order:fill markers stroke;fill-opacity:1;stroke:#d4af37;stroke-opacity:1;stroke-dasharray:none"
       id="rect231"
       width="105.83333"
       height="105.83333"
       x="0"
       y="0" /><g
       style="fill:#d4af37;stroke-width:0.418537;stroke-dasharray:none;fill-opacity:1"
       id="g2075"
       transform="matrix(2.3892759,0,0,2.3892759,9.801155,9.8021805)"><g
         id="g3707"
         transform="matrix(2.7684468,0,0,2.7684468,18.447456,-12.086021)"
         style="display:inline;fill:#d4af37;fill-opacity:1"><g
           id="icomoon-ignore"
           style="fill:#d4af37;fill-opacity:1" /><path
           d="M 1.373205,9.417208 -0.14521709,4.7460371 -1.664089,9.417208 h -4.9474514 l 4.0094435,2.873771 -1.5395368,4.669822 3.99641661,-2.896681 3.99596669,2.896681 -1.5390885,-4.669822 4.0094451,-2.873771 z m 0.4838279,3.023817 1.0754741,3.261912 -3.07727577,-2.230463 -3.07772563,2.230463 1.185987,-3.596145 -0.2861647,-0.204853 -2.7978495,-2.0053953 h 3.8054902 L -0.14431894,6.2954566 1.0259437,9.8965437 H 4.8314338 L 1.747868,12.106792 1.857925,12.441025 Z"
           fill="#000000"
           id="path3697"
           style="stroke-width:0.418536;fill:#d4af37;fill-opacity:1" /></g><g
         id="g3733"
         transform="matrix(1.2463084,0,0,1.2463084,-2.3202599,-1.9432771)"
         style="display:none;stroke-width:0.9297;fill:#d4af37;fill-opacity:1"><g
           id="icomoon-ignore-3"
           style="stroke-width:0.9297;fill:#d4af37;fill-opacity:1" /><path
           d="M 16,3.205 H 7.47 c -2.551,0 -4.265,1.714 -4.265,4.265 v 17.733 c 0,0.842 0.314,3.592 4.357,3.592 H 28.795 V 3.205 Z m -1.066,1.066 v 10.2 l -2.611,-2.378 -2.899,2.44 V 4.272 h 5.511 z m -7.464,0 h 0.887 v 12.552 l 3.938,-3.313 3.706,3.374 V 4.271 H 27.73 V 21.864 H 7.471 c -1.357,0 -2.457,0.405 -3.199,1.113 V 7.469 C 4.272,5.526 5.528,4.27 7.471,4.27 Z m 0.092,23.458 c -2.444,0 -3.151,-1.109 -3.269,-2.17 0.002,-1.646 1.189,-2.628 3.177,-2.628 h 20.259 v 4.798 z"
           fill="#000000"
           id="path3723"
           style="stroke-width:2.36607;fill:#d4af37;fill-opacity:1" /></g><g
         id="g3762"
         transform="matrix(1.3333535,0,0,1.3333535,-3.6811642,-2.9369341)"
         style="display:none;stroke-width:0.86901;fill:#d4af37;fill-opacity:1"><g
           id="icomoon-ignore-6"
           style="stroke-width:0.86901;fill:#d4af37;fill-opacity:1" /><path
           d="m 28.262,2.675 c -0.039,0 -0.075,0.009 -0.113,0.011 H 25.064 V 2.675 L 3.852,2.686 C 3.813,2.684 3.777,2.675 3.738,2.675 2.56,2.675 1.606,3.63 1.606,4.808 c 0,0.592 0.242,1.128 0.632,1.514 l 4.699,4.699 v -0.348 c 0,4.825 3.774,8.759 8.53,9.036 v 8.551 h -4.265 v 1.066 h 9.596 V 28.26 h -4.265 v -8.551 c 4.756,-0.277 8.53,-4.211 8.53,-9.036 v 0.348 l 4.699,-4.699 c 0.39,-0.386 0.632,-0.921 0.632,-1.514 0,-1.178 -0.955,-2.132 -2.133,-2.132 z M 6.937,9.512 2.988,5.563 C 2.784,5.361 2.672,5.092 2.672,4.807 2.672,4.234 3.126,3.765 3.695,3.742 3.728,3.746 3.761,3.749 3.794,3.751 l 0.029,0.002 h 3.114 v 5.76 z m 17.06,1.16 c 0,4.41 -3.588,7.997 -7.997,7.997 -4.409,0 -7.997,-3.587 -7.997,-7.997 V 3.741 H 23.997 Z M 29.012,5.563 25.063,9.512 V 3.752 L 28.206,3.75 c 0.034,-0.002 0.067,-0.005 0.099,-0.009 0.568,0.023 1.023,0.492 1.023,1.065 0,0.286 -0.113,0.554 -0.316,0.756 z"
           fill="#000000"
           id="path3752"
           style="stroke-width:1.80433;fill:#d4af37;fill-opacity:1" /></g></g></g></svg>
